<?xml version="1.0" encoding="UTF-8"?>
<svg id="Layer_1" data-name="Layer 1" xmlns="http://www.w3.org/2000/svg" viewBox="0 0 100 100">
  <defs>
    <style>
      .cls-1 {
        fill: #696a42;
      }

      .cls-2 {
        fill: #7e8271;
      }

      .cls-3 {
        fill: #7d8368;
      }

      .cls-4 {
        fill: #65633c;
      }

      .cls-5 {
        fill: #929169;
      }

      .cls-6 {
        fill: #322f0c;
      }

      .cls-7 {
        fill: #30340f;
      }

      .cls-8 {
        fill: #beba9c;
      }

      .cls-9 {
        fill: #bebb9b;
      }

      .cls-10 {
        fill: #bebb97;
      }

      .cls-11 {
        fill: #201b00;
      }

      .cls-12 {
        fill: #434a28;
      }

      .cls-13 {
        fill: #94926b;
      }

      .cls-14 {
        fill: #a3a27a;
      }

      .cls-15 {
        fill: #a2a27a;
      }

      .cls-16 {
        fill: #53502d;
      }

      .cls-17 {
        fill: #53512a;
      }

      .cls-18 {
        fill: #6e7259;
      }

      .cls-19 {
        fill: #62623e;
      }

      .cls-20 {
        fill: #5d6043;
      }

      .cls-21 {
        fill: #778383;
      }
    </style>
  </defs>
  <path class="cls-5" d="m596.23,0H9.19C4.11,0,0,4.11,0,9.19v489.49c0,5.08,4.11,9.19,9.19,9.19h587.04c5.08,0,9.19-4.11,9.19-9.19V9.19c0-5.08-4.11-9.19-9.19-9.19Zm-24.22,427.14c0,8.55.72,17.33-3.33,25.4-3.21.26-6.43.52-9.64.77-35.2-.14-70.4-.38-105.6-.39-126.18-.04-252.36-.02-378.54,0-6.32,0-12.65.19-18.97.3-2.44-.23-4.88-.46-7.32-.7-7.4-4.25-5.72-11.54-5.73-18.02-.1-72.6.15-145.19-.14-217.79-.14-33.67-1.09-170.57-1.27-181.65,82.62.2,434.37.2,527.65-.05.48.63.96,1.26,1.44,1.89,2.18,5.3,1.48,10.89,1.48,16.37.05,124.62.07,249.23-.04,373.85Z"/>
  <path class="cls-8" d="m589.84.11c-3.65,3.62-8.26,1.96-12.41,1.96-181.88.1-363.75.1-545.63.04-3.8,0-7.98,1.33-11.27-1.96C20.93.1,21.33,0,21.72,0c189.37.03,378.75.07,568.12.11Z"/>
  <path class="cls-9" d="m36.88,507.87c-5.43-.27-10.86-.54-16.29-.81,3.74-3.38,8.31-1.86,12.49-1.87,181.04-.07,362.09-.08,543.13.03,4.53,0,9.52-1.82,13.6,1.93-104.42.12-208.83.22-313.25.35-79.89.1-159.78.24-239.67.37Z"/>
  <path class="cls-17" d="m22.72,4.76c155.46-.08,310.92-.18,466.39-.23,33.62-.01,67.24.15,100.87.23.53,1.72,0,3.01-1.58,3.87-5.58,2.73-11.59,2.14-17.49,2.15-176.37.05-352.74.05-529.11,0-5.89,0-11.91.59-17.5-2.12-1.57-.88-2.1-2.18-1.58-3.9Z"/>
  <path class="cls-16" d="m589.98,502.5c-79.12.08-158.23.24-237.35.23-109.97,0-219.94-.13-329.92-.21-.53-1.72,0-3.01,1.57-3.88,5.57-2.74,11.59-2.15,17.48-2.15,176.37-.05,352.74-.05,529.11,0,5.89,0,11.91-.6,17.5,2.11,1.57.87,2.1,2.17,1.6,3.9Z"/>
  <path class="cls-19" d="m22.7,500.59c-.04.65-.04,1.29,0,1.94-3.94-.04-7.88-.09-11.81-.13-2.88-4.2-2.53-8.98-2.53-13.71.02-159.81.04-319.61.06-479.42,3.24-6.32,9.03-4.6,14.29-4.51-.05.64-.05,1.28-.01,1.92-6.66,5.52-8.17,12.78-8.16,21.1.1,150.57.1,301.14,0,451.71,0,8.32,1.49,15.59,8.16,21.11Z"/>
  <path class="cls-4" d="m589.98,502.5c.04-.62.04-1.24,0-1.86,4.83-6.72,5.8-14.31,5.79-22.41-.09-149.73-.09-299.46,0-449.19,0-8.1-.95-15.68-5.79-22.4.04-.63.04-1.26,0-1.88,12.51-2.11,12.02,6.16,12.02,14.6-.07,138.39-.05,276.77-.06,415.16,0,18.98-.28,37.96.11,56.93.18,8.95-3.36,12.47-12.07,11.05Z"/>
  <path class="cls-13" d="m599.57,45.18c0-9.48-.29-18.96.08-28.42.28-7.11-2.76-10.27-9.68-10.12-48.66.09-97.31.25-145.97.24-140.43-.03-280.87-.13-421.3-.21-9.15-.7-12.14,3.27-12.12,12.58.26,156.26.26,312.51,0,468.77-.02,9.31,2.95,13.29,12.11,12.56,122.63-.07,245.27-.18,367.9-.2,66.46,0,132.92.16,199.37.25,11.35.31,9.59-7.88,9.59-14.85,0-146.87,0-293.74,0-440.61Zm-27.56,381.96c0,8.55.72,17.33-3.33,25.4-3.21.26-6.43.52-9.64.77-35.2-.14-70.4-.38-105.6-.39-126.18-.04-252.36-.02-378.54,0-6.32,0-12.65.19-18.97.3-2.44-.23-4.88-.46-7.32-.7-7.4-4.25-5.72-11.54-5.73-18.02-.1-72.6.15-145.19-.14-217.79-.14-33.67-1.09-170.57-1.27-181.65,82.62.2,434.37.2,527.65-.05.48.63.96,1.26,1.44,1.89,2.18,5.3,1.48,10.89,1.48,16.37.05,124.62.07,249.23-.04,373.85Z"/>
  <path class="cls-10" d="m568.74,456.45c-23.25.56-46.51-.04-69.76.32-14.76.22-29.42-.21-43.78-3.83-.59,0-1.18,0-1.77,0-100.97-.04-201.93-.02-302.9,0-9.39,2.96-18.99,3.92-28.88,3.88-26.28-.12-52.57-.53-78.84.24-2.32.33-4.39,1.15-5.96,2.98,3.44,4.01,8.11,2.34,12.23,2.34,171.4.09,342.8.08,514.2,0,4.16,0,8.76,1.55,12.38-2.08-1.2-3.27-3.7-4.22-6.93-3.85Z"/>
  <path class="cls-10" d="m453.44,452.93c.59,0,1.18,0,1.77,0-.62-.16-1.25-.31-1.87-.48-6.67-.81-13.38-.51-20.08-.52-85.57-.02-171.13-.03-256.7,0-8.27,0-16.56-.44-24.82.61-.4.13-.8.24-1.2.37,100.97-.02,201.93-.03,302.9,0Z"/>
  <path class="cls-12" d="m575.66,26.35c-5.53,3.2-11.61,1.84-17.43,1.84-167.65.08-335.29.06-502.94.09-5.52,0-11.07-.56-16.54.7-5.27,4.96.16,6,2.76,8.05,0-.83-.02-1.5-.02-1.94,82.62.2,434.37.2,527.65-.05.45.59.9,1.18,1.35,1.77,1.01-.31,2.03-.6,3.06-.81,1.2-.29,2.35-.69,3.45-1.24,1.67-.85,2.44-2.39,3.21-3.95-.35-2.67-1.8-4.22-4.54-4.46Z"/>
  <path class="cls-12" d="m41.48,35.09c0,.44.02,1.11.02,1.94.11.09.22.18.33.28,2.95,1.2,6.11,1.33,9.19,1.78,2.37.18,4.74.16,7.11.16,163.87.06,327.73.03,491.6.01,4.74,0,9.48.03,14.2-.74,2.26-.32,4.39-1.06,6.55-1.71-.45-.59-.9-1.18-1.35-1.77-93.28.25-445.03.25-527.65.05Z"/>
  <path class="cls-6" d="m573.25,26.29c-3.44,1.39-7.04.78-10.57.78-171.68.03-343.36.03-515.04,0-3.52,0-7.13.63-10.56-.8-7.68.09-7.33,5.62-7.32,10.85.06,139.28.13,278.56.2,417.83,8.85-3.52,5.33-11.39,5.34-17.27.26-128.11.17-256.22.23-384.33,0-7.49-.69-15.04,1.19-22.43,21.76-.09,43.52-.25,65.28-.25,153.53-.02,307.06.02,460.59-.17,4.41,0,10.71,3.36,13.06-4.14-.8-.02-1.61-.04-2.41-.06Z"/>
  <path class="cls-1" d="m48.61,452.54c-1.69-.97-2.89-2.11-3.76-3.35-1.43-.57-2.61-1.58-3.38-3.33-1.93-4.5-1.19-9.3-1.19-14-.04-126.04-.04-252.08-.02-378.13,0-4.73-.34-9.49.63-14.19.25-1.48.46-2.96.59-4.45-1.59-1.39-3.17-2.78-4.76-4.17-6.88,3.22-4.45,9.52-4.46,14.64-.11,131.57-.05,263.15-.17,394.72,0,4.88,2.06,10.31-2.13,14.68-.43,5.38,3.56,4.79,6.89,5.08,1.46-.12,2.92-.24,4.39-.36,4.92-1.86,10.77-.41,15.11-4.29.23-.77.22-1.49-.03-2.16-.13,0-.26,0-.39,0-2.44-.23-4.88-.46-7.32-.7Z"/>
  <path class="cls-1" d="m48.8,449.86c-1.43-.01-2.78-.2-3.95-.67.87,1.24,2.07,2.38,3.76,3.35,2.44.23,4.88.46,7.32.7.13,0,.26,0,.39,0-.15-.41-.39-.8-.73-1.17-2.01-1.49-4.37-1.96-6.79-2.2Z"/>
  <path class="cls-11" d="m573.25,26.29c-3.73,3.4-8.31,1.89-12.49,1.9-170.4.08-340.79.07-511.19,0-4.18,0-8.76,1.5-12.48-1.91,12.25-.13,24.5-.36,36.75-.36,162.13-.03,324.26-.02,486.39,0,4.34,0,8.68.25,13.02.39Z"/>
  <path class="cls-20" d="m579.4,442.01c-.05-132.05-.03-264.11-.11-396.16,0-4.22,1.34-8.7-1.32-12.7-.76-.02-1.51-.01-2.27.02-4.4,5.04-3.19,11.22-3.2,17.02-.09,60.46.03,120.92-.08,181.38-.12,68.36.44,136.72-.28,205.12-.05.15-.1.3-.15.46-.16,5.25-.85,10.46-3.33,15.4-3.21.26-6.43.52-9.64.77-.22,0-.44,0-.66,0,0,.01-.02.03-.03.04-.36,1.21-.31,2.41.17,3.57,3.95,3.21,8.27,1.97,12.57,1.03,1.53.78,3.05,1.55,4.58,2.33,2.45-1.02,4.4-2.45,4.59-5.39-1.71-4.2-.86-8.61-.86-12.9Z"/>
  <path class="cls-20" d="m568.68,452.55c2.48-4.94,3.16-10.15,3.33-15.4-1.18,3.77-.77,7.95-3.03,11.42-.91.59-1.92.97-2.97,1.23-2.78.66-5.78.86-7.63,3.53.22,0,.44,0,.66,0,3.21-.26,6.43-.52,9.64-.77Z"/>
  <path class="cls-7" d="m580.26,454.91c-3.82-4.04-1.94-9.03-1.95-13.54-.11-130.95-.09-261.9-.1-392.85,0-5.13-.15-10.25-.23-15.37.74-.78,1.49-1.56,2.23-2.34.13,42.64.37,85.29.36,127.93-.03,98.72-.19,197.45-.3,296.17Z"/>
  <path class="cls-3" d="m74.9,452.94c-6.32,0-12.65.19-18.97.3h0c-.12.6-.21,1.2-.27,1.8,1.36,1.57,3.11,2.42,5.15,2.39,30.05-.48,60.16,2.36,90.13-1.9,101.26-.04,202.52-.09,303.78-.13,33.28,4.28,66.7,1.72,100.06,1.96,1.58.01,2.99-.88,4.24-1.89.06-.71.07-1.43.03-2.14-35.2-.14-70.4-.38-105.6-.39-126.18-.04-252.36-.02-378.54,0Z"/>
  <path class="cls-3" d="m543.6,449.07c-157.4-.13-314.8-.12-472.19,0-5.43,0-11.23-.58-15.48,4.17,6.32-.1,12.65-.3,18.97-.3,126.18-.02,252.36-.05,378.54,0,35.2.01,70.4.25,105.6.39-4.19-4.85-10.01-4.25-15.43-4.25Z"/>
  <path class="cls-14" d="m454.71,455.39c34.77.02,69.54.05,104.3.07,3.44,3.69,8.09,1.54,12.09,2.5-2.48,2.69-5.77,2.05-8.85,2.05-27.92.03-55.84.18-83.76-.08-8.1-.07-16.19-1.29-23.78-4.55Z"/>
  <path class="cls-15" d="m55.65,455.04c31.76.16,63.52.32,95.28.48-5.61,2.85-11.56,4.51-17.86,4.5-30.61-.07-61.22-.22-91.82-.34,4.38-2.85,9.29-4.07,14.41-4.64Z"/>
  <path class="cls-18" d="m575.8,431.15c0-132.66-.05-265.32-.09-397.98-2.4-.1-4.94-.7-6.58,1.87h0c.48.63.96,1.26,1.44,1.89,2.18,5.3,1.48,10.89,1.48,16.37.05,124.62.07,249.23-.04,373.85,0,3.81.14,7.67-.06,11.49.39.85.89,1.69,1.57,2.49,3.19-2.77,2.28-6.53,2.28-9.97Z"/>
  <path class="cls-18" d="m572.01,427.14c.1-124.62.09-249.23.04-373.85,0-5.48.7-11.07-1.48-16.37-.49-.63-.96-1.26-1.44-1.89h0s0,0,0,0c0,0-.48.38-.48.38,1.01,1.18,1.71,2.52,2.11,4.01.57,5.11.32,10.24.32,15.37.02,123.46-.01,246.93.09,370.39,0,4.45-1.16,9.19.78,13.44.2-3.82.06-7.68.06-11.49Z"/>
  <path class="cls-21" d="m39.35,35.41c-.05,139.15-.1,278.3-.15,417.45-3.88-3.5-2.26-8.16-2.27-12.28-.11-131.41-.11-262.82-.04-394.23,0-3.73-1.52-8.02,2.46-10.95Z"/>
  <path class="cls-2" d="m573.52,441.12c-.02-130.36-.02-260.73-.16-391.09,0-4.89,2.02-10.34-2.31-14.64-.26.44-.46.89-.63,1.34.05.07.1.13.15.2,2.18,5.3,1.48,10.89,1.48,16.37.05,124.62.07,249.23-.04,373.85,0,7.52.55,15.23-2.08,22.48.16,1.11.47,2.2,1.05,3.27,4.14-3.21,1.83-7.82,2.54-11.77Z"/>
  <path class="cls-2" d="m572.01,427.14c.1-124.62.09-249.23.04-373.85,0-5.48.7-11.07-1.48-16.37-.05-.07-.1-.13-.15-.2-1.09,2.94-.45,6.08-.45,9.1-.05,132.2-.05,264.4,0,396.6,0,2.38-.37,4.82-.03,7.19,2.63-7.25,2.07-14.95,2.08-22.48Z"/>
</svg>
